# xmcd
#
# Track frame offsets: 
#        150
#        9337
#        18502
#        29504
#        40973
#        52253
#        61643
#        72083
#        81308
#        92370
#        103290
#        110717
#        121040
#
# Disc length: 1728 seconds
#
# Revision: 0
# Processed by: cddbd v1.5.2PL0 Copyright (c) Steve Scherf et al.
# Submitted via: ExactAudioCopy v0.99pb3
#
DISCID=a606be0d
DTITLE=Charlie Cushman - Five String Time
DYEAR=2006
DGENRE=Bluegrass
TTITLE0=Dance All Night
TTITLE1=Foggy Mountain Breakdown
TTITLE2=Shortnin' Bread
TTITLE3=Pike County Breakdown
TTITLE4=Dear Old Dixie
TTITLE5=Tennessee Cut-up Breakdown
TTITLE6=John Henry
TTITLE7=Cumberland Gap
TTITLE8=Sally Goodwin
TTITLE9=Flint Hill Special
TTITLE10=Banjo Whiz
TTITLE11=The Eighth of January
TTITLE12=Shuckin' the Corn
EXTD=
EXTT0=
EXTT1=
EXTT2=
EXTT3=
EXTT4=
EXTT5=
EXTT6=
EXTT7=
EXTT8=
EXTT9=
EXTT10=
EXTT11=
EXTT12=
PLAYORDER=
